# Tiled2Unity generated file. Do not modify by hand.
# Wavefront file for 'lv01-01_mesh_0001.obj'

# Vertices (Count = 168)
v -396 -114 0
v -402 -114 0
v -402 -108 0
v -396 -108 0
v -402 -114 0
v -408 -114 0
v -408 -108 0
v -402 -108 0
v -408 -114 0
v -414 -114 0
v -414 -108 0
v -408 -108 0
v -414 -114 0
v -420 -114 0
v -420 -108 0
v -414 -108 0
v -420 -114 0
v -426 -114 0
v -426 -108 0
v -420 -108 0
v -426 -114 0
v -432 -114 0
v -432 -108 0
v -426 -108 0
v -432 -114 0
v -438 -114 0
v -438 -108 0
v -432 -108 0
v -396 -108 0
v -402 -108 0
v -402 -102 0
v -396 -102 0
v -402 -108 0
v -408 -108 0
v -408 -102 0
v -402 -102 0
v -408 -108 0
v -414 -108 0
v -414 -102 0
v -408 -102 0
v -414 -108 0
v -420 -108 0
v -420 -102 0
v -414 -102 0
v -420 -108 0
v -426 -108 0
v -426 -102 0
v -420 -102 0
v -426 -108 0
v -432 -108 0
v -432 -102 0
v -426 -102 0
v -432 -108 0
v -438 -108 0
v -438 -102 0
v -432 -102 0
v -396 -102 0
v -402 -102 0
v -402 -96 0
v -396 -96 0
v -402 -102 0
v -408 -102 0
v -408 -96 0
v -402 -96 0
v -408 -102 0
v -414 -102 0
v -414 -96 0
v -408 -96 0
v -414 -102 0
v -420 -102 0
v -420 -96 0
v -414 -96 0
v -420 -102 0
v -426 -102 0
v -426 -96 0
v -420 -96 0
v -426 -102 0
v -432 -102 0
v -432 -96 0
v -426 -96 0
v -432 -102 0
v -438 -102 0
v -438 -96 0
v -432 -96 0
v -396 -96 0
v -402 -96 0
v -402 -90 0
v -396 -90 0
v -402 -96 0
v -408 -96 0
v -408 -90 0
v -402 -90 0
v -408 -96 0
v -414 -96 0
v -414 -90 0
v -408 -90 0
v -414 -96 0
v -420 -96 0
v -420 -90 0
v -414 -90 0
v -420 -96 0
v -426 -96 0
v -426 -90 0
v -420 -90 0
v -426 -96 0
v -432 -96 0
v -432 -90 0
v -426 -90 0
v -432 -96 0
v -438 -96 0
v -438 -90 0
v -432 -90 0
v -396 -90 0
v -402 -90 0
v -402 -84 0
v -396 -84 0
v -402 -90 0
v -408 -90 0
v -408 -84 0
v -402 -84 0
v -408 -90 0
v -414 -90 0
v -414 -84 0
v -408 -84 0
v -414 -90 0
v -420 -90 0
v -420 -84 0
v -414 -84 0
v -420 -90 0
v -426 -90 0
v -426 -84 0
v -420 -84 0
v -426 -90 0
v -432 -90 0
v -432 -84 0
v -426 -84 0
v -432 -90 0
v -438 -90 0
v -438 -84 0
v -432 -84 0
v -396 -84 0
v -402 -84 0
v -402 -78 0
v -396 -78 0
v -402 -84 0
v -408 -84 0
v -408 -78 0
v -402 -78 0
v -408 -84 0
v -414 -84 0
v -414 -78 0
v -408 -78 0
v -414 -84 0
v -420 -84 0
v -420 -78 0
v -414 -78 0
v -420 -84 0
v -426 -84 0
v -426 -78 0
v -420 -78 0
v -426 -84 0
v -432 -84 0
v -432 -78 0
v -426 -78 0
v -432 -84 0
v -438 -84 0
v -438 -78 0
v -432 -78 0

# Texture cooridinates (Count = 168)
vt 0.0001220703 0.6667887
vt 0.04749698 0.6667887
vt 0.04749698 0.7221001
vt 0.0001220703 0.7221001
vt 0.04774112 0.6667887
vt 0.09511603 0.6667887
vt 0.09511603 0.7221001
vt 0.04774112 0.7221001
vt 0.09536017 0.6667887
vt 0.1427351 0.6667887
vt 0.1427351 0.7221001
vt 0.09536017 0.7221001
vt 0.1429792 0.6667887
vt 0.1903541 0.6667887
vt 0.1903541 0.7221001
vt 0.1429792 0.7221001
vt 0.1905983 0.6667887
vt 0.2379732 0.6667887
vt 0.2379732 0.7221001
vt 0.1905983 0.7221001
vt 0.2382173 0.6667887
vt 0.2855922 0.6667887
vt 0.2855922 0.7221001
vt 0.2382173 0.7221001
vt 0.2858364 0.6667887
vt 0.3332113 0.6667887
vt 0.3332113 0.7221001
vt 0.2858364 0.7221001
vt 0.0001220703 0.7223443
vt 0.04749698 0.7223443
vt 0.04749698 0.7776557
vt 0.0001220703 0.7776557
vt 0.04774112 0.7223443
vt 0.09511603 0.7223443
vt 0.09511603 0.7776557
vt 0.04774112 0.7776557
vt 0.09536017 0.7223443
vt 0.1427351 0.7223443
vt 0.1427351 0.7776557
vt 0.09536017 0.7776557
vt 0.1429792 0.7223443
vt 0.1903541 0.7223443
vt 0.1903541 0.7776557
vt 0.1429792 0.7776557
vt 0.1905983 0.7223443
vt 0.2379732 0.7223443
vt 0.2379732 0.7776557
vt 0.1905983 0.7776557
vt 0.2382173 0.7223443
vt 0.2855922 0.7223443
vt 0.2855922 0.7776557
vt 0.2382173 0.7776557
vt 0.2858364 0.7223443
vt 0.3332113 0.7223443
vt 0.3332113 0.7776557
vt 0.2858364 0.7776557
vt 0.0001220703 0.7778999
vt 0.04749698 0.7778999
vt 0.04749698 0.8332112
vt 0.0001220703 0.8332112
vt 0.04774112 0.7778999
vt 0.09511603 0.7778999
vt 0.09511603 0.8332112
vt 0.04774112 0.8332112
vt 0.09536017 0.7778999
vt 0.1427351 0.7778999
vt 0.1427351 0.8332112
vt 0.09536017 0.8332112
vt 0.1429792 0.7778999
vt 0.1903541 0.7778999
vt 0.1903541 0.8332112
vt 0.1429792 0.8332112
vt 0.1905983 0.7778999
vt 0.2379732 0.7778999
vt 0.2379732 0.8332112
vt 0.1905983 0.8332112
vt 0.2382173 0.7778999
vt 0.2855922 0.7778999
vt 0.2855922 0.8332112
vt 0.2382173 0.8332112
vt 0.2858364 0.7778999
vt 0.3332113 0.7778999
vt 0.3332113 0.8332112
vt 0.2858364 0.8332112
vt 0.0001220703 0.8334554
vt 0.04749698 0.8334554
vt 0.04749698 0.8887668
vt 0.0001220703 0.8887668
vt 0.04774112 0.8334554
vt 0.09511603 0.8334554
vt 0.09511603 0.8887668
vt 0.04774112 0.8887668
vt 0.09536017 0.8334554
vt 0.1427351 0.8334554
vt 0.1427351 0.8887668
vt 0.09536017 0.8887668
vt 0.1429792 0.8334554
vt 0.1903541 0.8334554
vt 0.1903541 0.8887668
vt 0.1429792 0.8887668
vt 0.1905983 0.8334554
vt 0.2379732 0.8334554
vt 0.2379732 0.8887668
vt 0.1905983 0.8887668
vt 0.2382173 0.8334554
vt 0.2855922 0.8334554
vt 0.2855922 0.8887668
vt 0.2382173 0.8887668
vt 0.2858364 0.8334554
vt 0.3332113 0.8334554
vt 0.3332113 0.8887668
vt 0.2858364 0.8887668
vt 0.0001220703 0.889011
vt 0.04749698 0.889011
vt 0.04749698 0.9443223
vt 0.0001220703 0.9443223
vt 0.04774112 0.889011
vt 0.09511603 0.889011
vt 0.09511603 0.9443223
vt 0.04774112 0.9443223
vt 0.09536017 0.889011
vt 0.1427351 0.889011
vt 0.1427351 0.9443223
vt 0.09536017 0.9443223
vt 0.1429792 0.889011
vt 0.1903541 0.889011
vt 0.1903541 0.9443223
vt 0.1429792 0.9443223
vt 0.1905983 0.889011
vt 0.2379732 0.889011
vt 0.2379732 0.9443223
vt 0.1905983 0.9443223
vt 0.2382173 0.889011
vt 0.2855922 0.889011
vt 0.2855922 0.9443223
vt 0.2382173 0.9443223
vt 0.2858364 0.889011
vt 0.3332113 0.889011
vt 0.3332113 0.9443223
vt 0.2858364 0.9443223
vt 0.0001220703 0.9445665
vt 0.04749698 0.9445665
vt 0.04749698 0.9998779
vt 0.0001220703 0.9998779
vt 0.04774112 0.9445665
vt 0.09511603 0.9445665
vt 0.09511603 0.9998779
vt 0.04774112 0.9998779
vt 0.09536017 0.9445665
vt 0.1427351 0.9445665
vt 0.1427351 0.9998779
vt 0.09536017 0.9998779
vt 0.1429792 0.9445665
vt 0.1903541 0.9445665
vt 0.1903541 0.9998779
vt 0.1429792 0.9998779
vt 0.1905983 0.9445665
vt 0.2379732 0.9445665
vt 0.2379732 0.9998779
vt 0.1905983 0.9998779
vt 0.2382173 0.9445665
vt 0.2855922 0.9445665
vt 0.2855922 0.9998779
vt 0.2382173 0.9998779
vt 0.2858364 0.9445665
vt 0.3332113 0.9445665
vt 0.3332113 0.9998779
vt 0.2858364 0.9998779

# Normal
vn 0 0 -1

# Mesh description
g lv01-01_mesh_0001

# Faces
f 1/1/1 2/2/1 3/3/1 4/4/1
f 5/5/1 6/6/1 7/7/1 8/8/1
f 9/9/1 10/10/1 11/11/1 12/12/1
f 13/13/1 14/14/1 15/15/1 16/16/1
f 17/17/1 18/18/1 19/19/1 20/20/1
f 21/21/1 22/22/1 23/23/1 24/24/1
f 25/25/1 26/26/1 27/27/1 28/28/1
f 29/29/1 30/30/1 31/31/1 32/32/1
f 33/33/1 34/34/1 35/35/1 36/36/1
f 37/37/1 38/38/1 39/39/1 40/40/1
f 41/41/1 42/42/1 43/43/1 44/44/1
f 45/45/1 46/46/1 47/47/1 48/48/1
f 49/49/1 50/50/1 51/51/1 52/52/1
f 53/53/1 54/54/1 55/55/1 56/56/1
f 57/57/1 58/58/1 59/59/1 60/60/1
f 61/61/1 62/62/1 63/63/1 64/64/1
f 65/65/1 66/66/1 67/67/1 68/68/1
f 69/69/1 70/70/1 71/71/1 72/72/1
f 73/73/1 74/74/1 75/75/1 76/76/1
f 77/77/1 78/78/1 79/79/1 80/80/1
f 81/81/1 82/82/1 83/83/1 84/84/1
f 85/85/1 86/86/1 87/87/1 88/88/1
f 89/89/1 90/90/1 91/91/1 92/92/1
f 93/93/1 94/94/1 95/95/1 96/96/1
f 97/97/1 98/98/1 99/99/1 100/100/1
f 101/101/1 102/102/1 103/103/1 104/104/1
f 105/105/1 106/106/1 107/107/1 108/108/1
f 109/109/1 110/110/1 111/111/1 112/112/1
f 113/113/1 114/114/1 115/115/1 116/116/1
f 117/117/1 118/118/1 119/119/1 120/120/1
f 121/121/1 122/122/1 123/123/1 124/124/1
f 125/125/1 126/126/1 127/127/1 128/128/1
f 129/129/1 130/130/1 131/131/1 132/132/1
f 133/133/1 134/134/1 135/135/1 136/136/1
f 137/137/1 138/138/1 139/139/1 140/140/1
f 141/141/1 142/142/1 143/143/1 144/144/1
f 145/145/1 146/146/1 147/147/1 148/148/1
f 149/149/1 150/150/1 151/151/1 152/152/1
f 153/153/1 154/154/1 155/155/1 156/156/1
f 157/157/1 158/158/1 159/159/1 160/160/1
f 161/161/1 162/162/1 163/163/1 164/164/1
f 165/165/1 166/166/1 167/167/1 168/168/1

