# Tiled2Unity generated file. Do not modify by hand.
# Wavefront file for 'lv01-01_mesh_0007.obj'

# Vertices (Count = 16)
v -1434 -588 0
v -1440 -588 0
v -1440 -582 0
v -1434 -582 0
v -1584 -204 0
v -1590 -204 0
v -1590 -198 0
v -1584 -198 0
v -1650 -198 0
v -1656 -198 0
v -1656 -192 0
v -1650 -192 0
v -1398 -192 0
v -1404 -192 0
v -1404 -186 0
v -1398 -186 0

# Texture cooridinates (Count = 8)
vt 0.0001220703 0.8751221
vt 0.1998779 0.8751221
vt 0.1998779 0.9998779
vt 0.0001220703 0.9998779
vt 0.8001221 0.8751221
vt 0.9998779 0.8751221
vt 0.9998779 0.9998779
vt 0.8001221 0.9998779

# Normal
vn 0 0 -1

# Mesh description
g lv01-01_mesh_0007

# Faces
f 1/1/1 2/2/1 3/3/1 4/4/1
f 5/5/1 6/6/1 7/7/1 8/8/1
f 9/1/1 10/2/1 11/3/1 12/4/1
f 13/1/1 14/2/1 15/3/1 16/4/1

