# Tiled2Unity generated file. Do not modify by hand.
# Wavefront file for 'lv01-01_mesh_0006.obj'

# Vertices (Count = 480)
v -104 -100 0
v -105 -100 0
v -105 -99 0
v -104 -99 0
v -105 -100 0
v -106 -100 0
v -106 -99 0
v -105 -99 0
v -106 -100 0
v -107 -100 0
v -107 -99 0
v -106 -99 0
v -95 -99 0
v -96 -99 0
v -96 -98 0
v -95 -98 0
v -96 -99 0
v -97 -99 0
v -97 -98 0
v -96 -98 0
v -97 -99 0
v -98 -99 0
v -98 -98 0
v -97 -98 0
v -98 -99 0
v -99 -99 0
v -99 -98 0
v -98 -98 0
v -99 -99 0
v -100 -99 0
v -100 -98 0
v -99 -98 0
v -100 -99 0
v -101 -99 0
v -101 -98 0
v -100 -98 0
v -101 -99 0
v -102 -99 0
v -102 -98 0
v -101 -98 0
v -95 -98 0
v -96 -98 0
v -96 -97 0
v -95 -97 0
v -96 -98 0
v -97 -98 0
v -97 -97 0
v -96 -97 0
v -97 -98 0
v -98 -98 0
v -98 -97 0
v -97 -97 0
v -98 -98 0
v -99 -98 0
v -99 -97 0
v -98 -97 0
v -99 -98 0
v -100 -98 0
v -100 -97 0
v -99 -97 0
v -100 -98 0
v -101 -98 0
v -101 -97 0
v -100 -97 0
v -101 -98 0
v -102 -98 0
v -102 -97 0
v -101 -97 0
v -95 -97 0
v -96 -97 0
v -96 -96 0
v -95 -96 0
v -96 -97 0
v -97 -97 0
v -97 -96 0
v -96 -96 0
v -97 -97 0
v -98 -97 0
v -98 -96 0
v -97 -96 0
v -98 -97 0
v -99 -97 0
v -99 -96 0
v -98 -96 0
v -99 -97 0
v -100 -97 0
v -100 -96 0
v -99 -96 0
v -100 -97 0
v -101 -97 0
v -101 -96 0
v -100 -96 0
v -101 -97 0
v -102 -97 0
v -102 -96 0
v -101 -96 0
v -95 -96 0
v -96 -96 0
v -96 -95 0
v -95 -95 0
v -96 -96 0
v -97 -96 0
v -97 -95 0
v -96 -95 0
v -97 -96 0
v -98 -96 0
v -98 -95 0
v -97 -95 0
v -98 -96 0
v -99 -96 0
v -99 -95 0
v -98 -95 0
v -99 -96 0
v -100 -96 0
v -100 -95 0
v -99 -95 0
v -100 -96 0
v -101 -96 0
v -101 -95 0
v -100 -95 0
v -101 -96 0
v -102 -96 0
v -102 -95 0
v -101 -95 0
v -105 -96 0
v -106 -96 0
v -106 -95 0
v -105 -95 0
v -278 -87 0
v -279 -87 0
v -279 -86 0
v -278 -86 0
v -279 -87 0
v -280 -87 0
v -280 -86 0
v -279 -86 0
v -280 -87 0
v -281 -87 0
v -281 -86 0
v -280 -86 0
v -281 -87 0
v -282 -87 0
v -282 -86 0
v -281 -86 0
v -278 -86 0
v -279 -86 0
v -279 -85 0
v -278 -85 0
v -279 -86 0
v -280 -86 0
v -280 -85 0
v -279 -85 0
v -280 -86 0
v -281 -86 0
v -281 -85 0
v -280 -85 0
v -281 -86 0
v -282 -86 0
v -282 -85 0
v -281 -85 0
v -278 -85 0
v -279 -85 0
v -279 -84 0
v -278 -84 0
v -279 -85 0
v -280 -85 0
v -280 -84 0
v -279 -84 0
v -280 -85 0
v -281 -85 0
v -281 -84 0
v -280 -84 0
v -281 -85 0
v -282 -85 0
v -282 -84 0
v -281 -84 0
v -265 -84 0
v -266 -84 0
v -266 -83 0
v -265 -83 0
v -182 -83 0
v -183 -83 0
v -183 -82 0
v -182 -82 0
v -183 -83 0
v -184 -83 0
v -184 -82 0
v -183 -82 0
v -184 -83 0
v -185 -83 0
v -185 -82 0
v -184 -82 0
v -182 -82 0
v -183 -82 0
v -183 -81 0
v -182 -81 0
v -183 -82 0
v -184 -82 0
v -184 -81 0
v -183 -81 0
v -184 -82 0
v -185 -82 0
v -185 -81 0
v -184 -81 0
v -182 -81 0
v -183 -81 0
v -183 -80 0
v -182 -80 0
v -183 -81 0
v -184 -81 0
v -184 -80 0
v -183 -80 0
v -184 -81 0
v -185 -81 0
v -185 -80 0
v -184 -80 0
v -169 -74 0
v -170 -74 0
v -170 -73 0
v -169 -73 0
v -170 -74 0
v -171 -74 0
v -171 -73 0
v -170 -73 0
v -171 -74 0
v -172 -74 0
v -172 -73 0
v -171 -73 0
v -173 -74 0
v -174 -74 0
v -174 -73 0
v -173 -73 0
v -169 -73 0
v -170 -73 0
v -170 -72 0
v -169 -72 0
v -170 -73 0
v -171 -73 0
v -171 -72 0
v -170 -72 0
v -171 -73 0
v -172 -73 0
v -172 -72 0
v -171 -72 0
v -169 -72 0
v -170 -72 0
v -170 -71 0
v -169 -71 0
v -170 -72 0
v -171 -72 0
v -171 -71 0
v -170 -71 0
v -171 -72 0
v -172 -72 0
v -172 -71 0
v -171 -71 0
v -74 -69 0
v -75 -69 0
v -75 -68 0
v -74 -68 0
v -75 -69 0
v -76 -69 0
v -76 -68 0
v -75 -68 0
v -76 -69 0
v -77 -69 0
v -77 -68 0
v -76 -68 0
v -77 -69 0
v -78 -69 0
v -78 -68 0
v -77 -68 0
v -74 -68 0
v -75 -68 0
v -75 -67 0
v -74 -67 0
v -75 -68 0
v -76 -68 0
v -76 -67 0
v -75 -67 0
v -76 -68 0
v -77 -68 0
v -77 -67 0
v -76 -67 0
v -77 -68 0
v -78 -68 0
v -78 -67 0
v -77 -67 0
v -167 -68 0
v -168 -68 0
v -168 -67 0
v -167 -67 0
v -168 -68 0
v -169 -68 0
v -169 -67 0
v -168 -67 0
v -169 -68 0
v -170 -68 0
v -170 -67 0
v -169 -67 0
v -74 -67 0
v -75 -67 0
v -75 -66 0
v -74 -66 0
v -75 -67 0
v -76 -67 0
v -76 -66 0
v -75 -66 0
v -76 -67 0
v -77 -67 0
v -77 -66 0
v -76 -66 0
v -77 -67 0
v -78 -67 0
v -78 -66 0
v -77 -66 0
v -167 -67 0
v -168 -67 0
v -168 -66 0
v -167 -66 0
v -168 -67 0
v -169 -67 0
v -169 -66 0
v -168 -66 0
v -169 -67 0
v -170 -67 0
v -170 -66 0
v -169 -66 0
v -74 -66 0
v -75 -66 0
v -75 -65 0
v -74 -65 0
v -75 -66 0
v -76 -66 0
v -76 -65 0
v -75 -65 0
v -76 -66 0
v -77 -66 0
v -77 -65 0
v -76 -65 0
v -77 -66 0
v -78 -66 0
v -78 -65 0
v -77 -65 0
v -167 -66 0
v -168 -66 0
v -168 -65 0
v -167 -65 0
v -168 -66 0
v -169 -66 0
v -169 -65 0
v -168 -65 0
v -169 -66 0
v -170 -66 0
v -170 -65 0
v -169 -65 0
v -167 -65 0
v -168 -65 0
v -168 -64 0
v -167 -64 0
v -168 -65 0
v -169 -65 0
v -169 -64 0
v -168 -64 0
v -169 -65 0
v -170 -65 0
v -170 -64 0
v -169 -64 0
v 0 -28 0
v -1 -28 0
v -1 -27 0
v 0 -27 0
v -1 -28 0
v -2 -28 0
v -2 -27 0
v -1 -27 0
v -2 -28 0
v -3 -28 0
v -3 -27 0
v -2 -27 0
v -3 -28 0
v -4 -28 0
v -4 -27 0
v -3 -27 0
v 0 -27 0
v -1 -27 0
v -1 -26 0
v 0 -26 0
v -1 -27 0
v -2 -27 0
v -2 -26 0
v -1 -26 0
v -2 -27 0
v -3 -27 0
v -3 -26 0
v -2 -26 0
v -3 -27 0
v -4 -27 0
v -4 -26 0
v -3 -26 0
v 0 -26 0
v -1 -26 0
v -1 -25 0
v 0 -25 0
v -1 -26 0
v -2 -26 0
v -2 -25 0
v -1 -25 0
v -2 -26 0
v -3 -26 0
v -3 -25 0
v -2 -25 0
v -3 -26 0
v -4 -26 0
v -4 -25 0
v -3 -25 0
v 0 -25 0
v -1 -25 0
v -1 -24 0
v 0 -24 0
v -1 -25 0
v -2 -25 0
v -2 -24 0
v -1 -24 0
v -2 -25 0
v -3 -25 0
v -3 -24 0
v -2 -24 0
v -3 -25 0
v -4 -25 0
v -4 -24 0
v -3 -24 0
v 0 -24 0
v -1 -24 0
v -1 -23 0
v 0 -23 0
v -1 -24 0
v -2 -24 0
v -2 -23 0
v -1 -23 0
v -2 -24 0
v -3 -24 0
v -3 -23 0
v -2 -23 0
v -3 -24 0
v -4 -24 0
v -4 -23 0
v -3 -23 0
v 0 -23 0
v -1 -23 0
v -1 -22 0
v 0 -22 0
v -1 -23 0
v -2 -23 0
v -2 -22 0
v -1 -22 0
v -2 -23 0
v -3 -23 0
v -3 -22 0
v -2 -22 0
v -3 -23 0
v -4 -23 0
v -4 -22 0
v -3 -22 0
v 0 -22 0
v -1 -22 0
v -1 -21 0
v 0 -21 0
v -1 -22 0
v -2 -22 0
v -2 -21 0
v -1 -21 0
v -2 -22 0
v -3 -22 0
v -3 -21 0
v -2 -21 0
v -3 -22 0
v -4 -22 0
v -4 -21 0
v -3 -21 0

# Texture cooridinates (Count = 404)
vt 0.6667888 0.6819403
vt 0.7221001 0.6819403
vt 0.7221001 0.7271507
vt 0.6667888 0.7271507
vt 0.7223443 0.6819403
vt 0.7776557 0.6819403
vt 0.7776557 0.7271507
vt 0.7223443 0.7271507
vt 0.7778999 0.6819403
vt 0.8332112 0.6819403
vt 0.8332112 0.7271507
vt 0.7778999 0.7271507
vt 0.0001220703 0.0001220703
vt 0.05543349 0.0001220703
vt 0.05543349 0.04533249
vt 0.0001220703 0.04533249
vt 0.05567763 0.0001220703
vt 0.110989 0.0001220703
vt 0.110989 0.04533249
vt 0.05567763 0.04533249
vt 0.1112332 0.0001220703
vt 0.1665446 0.0001220703
vt 0.1665446 0.04533249
vt 0.1112332 0.04533249
vt 0.1667887 0.0001220703
vt 0.2221002 0.0001220703
vt 0.2221002 0.04533249
vt 0.1667887 0.04533249
vt 0.2223443 0.0001220703
vt 0.2776557 0.0001220703
vt 0.2776557 0.04533249
vt 0.2223443 0.04533249
vt 0.2778999 0.0001220703
vt 0.3332113 0.0001220703
vt 0.3332113 0.04533249
vt 0.2778999 0.04533249
vt 0.3334554 0.0001220703
vt 0.3887668 0.0001220703
vt 0.3887668 0.04533249
vt 0.3334554 0.04533249
vt 0.0001220703 0.04557663
vt 0.05543349 0.04557663
vt 0.05543349 0.09078699
vt 0.0001220703 0.09078699
vt 0.05567763 0.04557663
vt 0.110989 0.04557663
vt 0.110989 0.09078699
vt 0.05567763 0.09078699
vt 0.1112332 0.04557663
vt 0.1665446 0.04557663
vt 0.1665446 0.09078699
vt 0.1112332 0.09078699
vt 0.1667887 0.04557663
vt 0.2221002 0.04557663
vt 0.2221002 0.09078699
vt 0.1667887 0.09078699
vt 0.2223443 0.04557663
vt 0.2776557 0.04557663
vt 0.2776557 0.09078699
vt 0.2223443 0.09078699
vt 0.2778999 0.04557663
vt 0.3332113 0.04557663
vt 0.3332113 0.09078699
vt 0.2778999 0.09078699
vt 0.3334554 0.04557663
vt 0.3887668 0.04557663
vt 0.3887668 0.09078699
vt 0.3334554 0.09078699
vt 0.0001220703 0.09103113
vt 0.05543349 0.09103113
vt 0.05543349 0.1362416
vt 0.0001220703 0.1362416
vt 0.05567763 0.09103113
vt 0.110989 0.09103113
vt 0.110989 0.1362416
vt 0.05567763 0.1362416
vt 0.1112332 0.09103113
vt 0.1665446 0.09103113
vt 0.1665446 0.1362416
vt 0.1112332 0.1362416
vt 0.1667887 0.09103113
vt 0.2221002 0.09103113
vt 0.2221002 0.1362416
vt 0.1667887 0.1362416
vt 0.2223443 0.09103113
vt 0.2776557 0.09103113
vt 0.2776557 0.1362416
vt 0.2223443 0.1362416
vt 0.2778999 0.09103113
vt 0.3332113 0.09103113
vt 0.3332113 0.1362416
vt 0.2778999 0.1362416
vt 0.3334554 0.09103113
vt 0.3887668 0.09103113
vt 0.3887668 0.1362416
vt 0.3334554 0.1362416
vt 0.0001220703 0.1364857
vt 0.05543349 0.1364857
vt 0.05543349 0.1816961
vt 0.0001220703 0.1816961
vt 0.05567763 0.1364857
vt 0.110989 0.1364857
vt 0.110989 0.1816961
vt 0.05567763 0.1816961
vt 0.1112332 0.1364857
vt 0.1665446 0.1364857
vt 0.1665446 0.1816961
vt 0.1112332 0.1816961
vt 0.1667887 0.1364857
vt 0.2221002 0.1364857
vt 0.2221002 0.1816961
vt 0.1667887 0.1816961
vt 0.2223443 0.1364857
vt 0.2776557 0.1364857
vt 0.2776557 0.1816961
vt 0.2223443 0.1816961
vt 0.2778999 0.1364857
vt 0.3332113 0.1364857
vt 0.3332113 0.1816961
vt 0.2778999 0.1816961
vt 0.3334554 0.1364857
vt 0.3887668 0.1364857
vt 0.3887668 0.1816961
vt 0.3334554 0.1816961
vt 0.7778999 0.5455766
vt 0.8332112 0.5455766
vt 0.8332112 0.5907871
vt 0.7778999 0.5907871
vt 0.8334554 0.5455766
vt 0.8887668 0.5455766
vt 0.8887668 0.5907871
vt 0.8334554 0.5907871
vt 0.889011 0.5455766
vt 0.9443223 0.5455766
vt 0.9443223 0.5907871
vt 0.889011 0.5907871
vt 0.9445665 0.5455766
vt 0.9998779 0.5455766
vt 0.9998779 0.5907871
vt 0.9445665 0.5907871
vt 0.7778999 0.5910312
vt 0.8332112 0.5910312
vt 0.8332112 0.6362416
vt 0.7778999 0.6362416
vt 0.8334554 0.5910312
vt 0.8887668 0.5910312
vt 0.8887668 0.6362416
vt 0.8334554 0.6362416
vt 0.889011 0.5910312
vt 0.9443223 0.5910312
vt 0.9443223 0.6362416
vt 0.889011 0.6362416
vt 0.9445665 0.5910312
vt 0.9998779 0.5910312
vt 0.9998779 0.6362416
vt 0.9445665 0.6362416
vt 0.7778999 0.6364857
vt 0.8332112 0.6364857
vt 0.8332112 0.6816961
vt 0.7778999 0.6816961
vt 0.8334554 0.6364857
vt 0.8887668 0.6364857
vt 0.8887668 0.6816961
vt 0.8334554 0.6816961
vt 0.889011 0.6364857
vt 0.9443223 0.6364857
vt 0.9443223 0.6816961
vt 0.889011 0.6816961
vt 0.9445665 0.6364857
vt 0.9998779 0.6364857
vt 0.9998779 0.6816961
vt 0.9445665 0.6816961
vt 0.9445665 0.6819403
vt 0.9998779 0.6819403
vt 0.9998779 0.7271507
vt 0.9445665 0.7271507
vt 0.8334554 0.8637584
vt 0.8887668 0.8637584
vt 0.8887668 0.9089688
vt 0.8334554 0.9089688
vt 0.889011 0.8637584
vt 0.9443223 0.8637584
vt 0.9443223 0.9089688
vt 0.889011 0.9089688
vt 0.9445665 0.8637584
vt 0.9998779 0.8637584
vt 0.9998779 0.9089688
vt 0.9445665 0.9089688
vt 0.8334554 0.9092129
vt 0.8887668 0.9092129
vt 0.8887668 0.9544234
vt 0.8334554 0.9544234
vt 0.889011 0.9092129
vt 0.9443223 0.9092129
vt 0.9443223 0.9544234
vt 0.889011 0.9544234
vt 0.9445665 0.9092129
vt 0.9998779 0.9092129
vt 0.9998779 0.9544234
vt 0.9445665 0.9544234
vt 0.8334554 0.9546675
vt 0.8887668 0.9546675
vt 0.8887668 0.9998779
vt 0.8334554 0.9998779
vt 0.889011 0.9546675
vt 0.9443223 0.9546675
vt 0.9443223 0.9998779
vt 0.889011 0.9998779
vt 0.9445665 0.9546675
vt 0.9998779 0.9546675
vt 0.9998779 0.9998779
vt 0.9445665 0.9998779
vt 0.8334554 0.7273948
vt 0.8887668 0.7273948
vt 0.8887668 0.7726052
vt 0.8334554 0.7726052
vt 0.889011 0.7273948
vt 0.9443223 0.7273948
vt 0.9443223 0.7726052
vt 0.889011 0.7726052
vt 0.9445665 0.7273948
vt 0.9998779 0.7273948
vt 0.9998779 0.7726052
vt 0.9445665 0.7726052
vt 0.8334554 0.7728493
vt 0.8887668 0.7728493
vt 0.8887668 0.8180597
vt 0.8334554 0.8180597
vt 0.889011 0.7728493
vt 0.9443223 0.7728493
vt 0.9443223 0.8180597
vt 0.889011 0.8180597
vt 0.9445665 0.7728493
vt 0.9998779 0.7728493
vt 0.9998779 0.8180597
vt 0.9445665 0.8180597
vt 0.8334554 0.8183039
vt 0.8887668 0.8183039
vt 0.8887668 0.8635143
vt 0.8334554 0.8635143
vt 0.889011 0.8183039
vt 0.9443223 0.8183039
vt 0.9443223 0.8635143
vt 0.889011 0.8635143
vt 0.9445665 0.8183039
vt 0.9998779 0.8183039
vt 0.9998779 0.8635143
vt 0.9445665 0.8635143
vt 0.6667888 0.7273948
vt 0.7221001 0.7273948
vt 0.7221001 0.7726052
vt 0.6667888 0.7726052
vt 0.7223443 0.7273948
vt 0.7776557 0.7273948
vt 0.7776557 0.7726052
vt 0.7223443 0.7726052
vt 0.7778999 0.7273948
vt 0.8332112 0.7273948
vt 0.8332112 0.7726052
vt 0.7778999 0.7726052
vt 0.8334554 0.6819403
vt 0.8887668 0.6819403
vt 0.8887668 0.7271507
vt 0.8334554 0.7271507
vt 0.889011 0.6819403
vt 0.9443223 0.6819403
vt 0.9443223 0.7271507
vt 0.889011 0.7271507
vt 0.6667888 0.7728493
vt 0.7221001 0.7728493
vt 0.7221001 0.8180597
vt 0.6667888 0.8180597
vt 0.7223443 0.7728493
vt 0.7776557 0.7728493
vt 0.7776557 0.8180597
vt 0.7223443 0.8180597
vt 0.7778999 0.7728493
vt 0.8332112 0.7728493
vt 0.8332112 0.8180597
vt 0.7778999 0.8180597
vt 0.6667888 0.8183039
vt 0.7221001 0.8183039
vt 0.7221001 0.8635143
vt 0.6667888 0.8635143
vt 0.7223443 0.8183039
vt 0.7776557 0.8183039
vt 0.7776557 0.8635143
vt 0.7223443 0.8635143
vt 0.7778999 0.8183039
vt 0.8332112 0.8183039
vt 0.8332112 0.8635143
vt 0.7778999 0.8635143
vt 0.389011 0.6819403
vt 0.4443224 0.6819403
vt 0.4443224 0.7271507
vt 0.389011 0.7271507
vt 0.4445665 0.6819403
vt 0.4998779 0.6819403
vt 0.4998779 0.7271507
vt 0.4445665 0.7271507
vt 0.5001221 0.6819403
vt 0.5554335 0.6819403
vt 0.5554335 0.7271507
vt 0.5001221 0.7271507
vt 0.5556777 0.6819403
vt 0.610989 0.6819403
vt 0.610989 0.7271507
vt 0.5556777 0.7271507
vt 0.389011 0.7273948
vt 0.4443224 0.7273948
vt 0.4443224 0.7726052
vt 0.389011 0.7726052
vt 0.4445665 0.7273948
vt 0.4998779 0.7273948
vt 0.4998779 0.7726052
vt 0.4445665 0.7726052
vt 0.5001221 0.7273948
vt 0.5554335 0.7273948
vt 0.5554335 0.7726052
vt 0.5001221 0.7726052
vt 0.5556777 0.7273948
vt 0.610989 0.7273948
vt 0.610989 0.7726052
vt 0.5556777 0.7726052
vt 0.389011 0.7728493
vt 0.4443224 0.7728493
vt 0.4443224 0.8180597
vt 0.389011 0.8180597
vt 0.4445665 0.7728493
vt 0.4998779 0.7728493
vt 0.4998779 0.8180597
vt 0.4445665 0.8180597
vt 0.5001221 0.7728493
vt 0.5554335 0.7728493
vt 0.5554335 0.8180597
vt 0.5001221 0.8180597
vt 0.5556777 0.7728493
vt 0.610989 0.7728493
vt 0.610989 0.8180597
vt 0.5556777 0.8180597
vt 0.389011 0.8183039
vt 0.4443224 0.8183039
vt 0.4443224 0.8635143
vt 0.389011 0.8635143
vt 0.4445665 0.8183039
vt 0.4998779 0.8183039
vt 0.4998779 0.8635143
vt 0.4445665 0.8635143
vt 0.5001221 0.8183039
vt 0.5554335 0.8183039
vt 0.5554335 0.8635143
vt 0.5001221 0.8635143
vt 0.5556777 0.8183039
vt 0.610989 0.8183039
vt 0.610989 0.8635143
vt 0.5556777 0.8635143
vt 0.389011 0.8637584
vt 0.4443224 0.8637584
vt 0.4443224 0.9089688
vt 0.389011 0.9089688
vt 0.4445665 0.8637584
vt 0.4998779 0.8637584
vt 0.4998779 0.9089688
vt 0.4445665 0.9089688
vt 0.5001221 0.8637584
vt 0.5554335 0.8637584
vt 0.5554335 0.9089688
vt 0.5001221 0.9089688
vt 0.5556777 0.8637584
vt 0.610989 0.8637584
vt 0.610989 0.9089688
vt 0.5556777 0.9089688
vt 0.389011 0.9092129
vt 0.4443224 0.9092129
vt 0.4443224 0.9544234
vt 0.389011 0.9544234
vt 0.4445665 0.9092129
vt 0.4998779 0.9092129
vt 0.4998779 0.9544234
vt 0.4445665 0.9544234
vt 0.5001221 0.9092129
vt 0.5554335 0.9092129
vt 0.5554335 0.9544234
vt 0.5001221 0.9544234
vt 0.5556777 0.9092129
vt 0.610989 0.9092129
vt 0.610989 0.9544234
vt 0.5556777 0.9544234
vt 0.389011 0.9546675
vt 0.4443224 0.9546675
vt 0.4443224 0.9998779
vt 0.389011 0.9998779
vt 0.4445665 0.9546675
vt 0.4998779 0.9546675
vt 0.4998779 0.9998779
vt 0.4445665 0.9998779
vt 0.5001221 0.9546675
vt 0.5554335 0.9546675
vt 0.5554335 0.9998779
vt 0.5001221 0.9998779
vt 0.5556777 0.9546675
vt 0.610989 0.9546675
vt 0.610989 0.9998779
vt 0.5556777 0.9998779

# Normal
vn 0 0 -1

# Mesh description
g lv01-01_mesh_0006

# Faces
f 1/1/1 2/2/1 3/3/1 4/4/1
f 5/5/1 6/6/1 7/7/1 8/8/1
f 9/9/1 10/10/1 11/11/1 12/12/1
f 13/13/1 14/14/1 15/15/1 16/16/1
f 17/17/1 18/18/1 19/19/1 20/20/1
f 21/21/1 22/22/1 23/23/1 24/24/1
f 25/25/1 26/26/1 27/27/1 28/28/1
f 29/29/1 30/30/1 31/31/1 32/32/1
f 33/33/1 34/34/1 35/35/1 36/36/1
f 37/37/1 38/38/1 39/39/1 40/40/1
f 41/41/1 42/42/1 43/43/1 44/44/1
f 45/45/1 46/46/1 47/47/1 48/48/1
f 49/49/1 50/50/1 51/51/1 52/52/1
f 53/53/1 54/54/1 55/55/1 56/56/1
f 57/57/1 58/58/1 59/59/1 60/60/1
f 61/61/1 62/62/1 63/63/1 64/64/1
f 65/65/1 66/66/1 67/67/1 68/68/1
f 69/69/1 70/70/1 71/71/1 72/72/1
f 73/73/1 74/74/1 75/75/1 76/76/1
f 77/77/1 78/78/1 79/79/1 80/80/1
f 81/81/1 82/82/1 83/83/1 84/84/1
f 85/85/1 86/86/1 87/87/1 88/88/1
f 89/89/1 90/90/1 91/91/1 92/92/1
f 93/93/1 94/94/1 95/95/1 96/96/1
f 97/97/1 98/98/1 99/99/1 100/100/1
f 101/101/1 102/102/1 103/103/1 104/104/1
f 105/105/1 106/106/1 107/107/1 108/108/1
f 109/109/1 110/110/1 111/111/1 112/112/1
f 113/113/1 114/114/1 115/115/1 116/116/1
f 117/117/1 118/118/1 119/119/1 120/120/1
f 121/121/1 122/122/1 123/123/1 124/124/1
f 125/121/1 126/122/1 127/123/1 128/124/1
f 129/125/1 130/126/1 131/127/1 132/128/1
f 133/129/1 134/130/1 135/131/1 136/132/1
f 137/133/1 138/134/1 139/135/1 140/136/1
f 141/137/1 142/138/1 143/139/1 144/140/1
f 145/141/1 146/142/1 147/143/1 148/144/1
f 149/145/1 150/146/1 151/147/1 152/148/1
f 153/149/1 154/150/1 155/151/1 156/152/1
f 157/153/1 158/154/1 159/155/1 160/156/1
f 161/157/1 162/158/1 163/159/1 164/160/1
f 165/161/1 166/162/1 167/163/1 168/164/1
f 169/165/1 170/166/1 171/167/1 172/168/1
f 173/169/1 174/170/1 175/171/1 176/172/1
f 177/173/1 178/174/1 179/175/1 180/176/1
f 181/177/1 182/178/1 183/179/1 184/180/1
f 185/181/1 186/182/1 187/183/1 188/184/1
f 189/185/1 190/186/1 191/187/1 192/188/1
f 193/189/1 194/190/1 195/191/1 196/192/1
f 197/193/1 198/194/1 199/195/1 200/196/1
f 201/197/1 202/198/1 203/199/1 204/200/1
f 205/201/1 206/202/1 207/203/1 208/204/1
f 209/205/1 210/206/1 211/207/1 212/208/1
f 213/209/1 214/210/1 215/211/1 216/212/1
f 217/213/1 218/214/1 219/215/1 220/216/1
f 221/217/1 222/218/1 223/219/1 224/220/1
f 225/221/1 226/222/1 227/223/1 228/224/1
f 229/221/1 230/222/1 231/223/1 232/224/1
f 233/225/1 234/226/1 235/227/1 236/228/1
f 237/229/1 238/230/1 239/231/1 240/232/1
f 241/233/1 242/234/1 243/235/1 244/236/1
f 245/237/1 246/238/1 247/239/1 248/240/1
f 249/241/1 250/242/1 251/243/1 252/244/1
f 253/245/1 254/246/1 255/247/1 256/248/1
f 257/125/1 258/126/1 259/127/1 260/128/1
f 261/129/1 262/130/1 263/131/1 264/132/1
f 265/133/1 266/134/1 267/135/1 268/136/1
f 269/137/1 270/138/1 271/139/1 272/140/1
f 273/141/1 274/142/1 275/143/1 276/144/1
f 277/145/1 278/146/1 279/147/1 280/148/1
f 281/149/1 282/150/1 283/151/1 284/152/1
f 285/153/1 286/154/1 287/155/1 288/156/1
f 289/1/1 290/2/1 291/3/1 292/4/1
f 293/5/1 294/6/1 295/7/1 296/8/1
f 297/9/1 298/10/1 299/11/1 300/12/1
f 301/157/1 302/158/1 303/159/1 304/160/1
f 305/161/1 306/162/1 307/163/1 308/164/1
f 309/165/1 310/166/1 311/167/1 312/168/1
f 313/169/1 314/170/1 315/171/1 316/172/1
f 317/249/1 318/250/1 319/251/1 320/252/1
f 321/253/1 322/254/1 323/255/1 324/256/1
f 325/257/1 326/258/1 327/259/1 328/260/1
f 329/9/1 330/10/1 331/11/1 332/12/1
f 333/261/1 334/262/1 335/263/1 336/264/1
f 337/265/1 338/266/1 339/267/1 340/268/1
f 341/173/1 342/174/1 343/175/1 344/176/1
f 345/269/1 346/270/1 347/271/1 348/272/1
f 349/273/1 350/274/1 351/275/1 352/276/1
f 353/277/1 354/278/1 355/279/1 356/280/1
f 357/281/1 358/282/1 359/283/1 360/284/1
f 361/285/1 362/286/1 363/287/1 364/288/1
f 365/289/1 366/290/1 367/291/1 368/292/1
f 369/293/1 370/294/1 371/295/1 372/296/1
f 373/297/1 374/298/1 375/299/1 376/300/1
f 377/301/1 378/302/1 379/303/1 380/304/1
f 381/305/1 382/306/1 383/307/1 384/308/1
f 385/309/1 386/310/1 387/311/1 388/312/1
f 389/313/1 390/314/1 391/315/1 392/316/1
f 393/317/1 394/318/1 395/319/1 396/320/1
f 397/321/1 398/322/1 399/323/1 400/324/1
f 401/325/1 402/326/1 403/327/1 404/328/1
f 405/329/1 406/330/1 407/331/1 408/332/1
f 409/333/1 410/334/1 411/335/1 412/336/1
f 413/337/1 414/338/1 415/339/1 416/340/1
f 417/341/1 418/342/1 419/343/1 420/344/1
f 421/345/1 422/346/1 423/347/1 424/348/1
f 425/349/1 426/350/1 427/351/1 428/352/1
f 429/353/1 430/354/1 431/355/1 432/356/1
f 433/357/1 434/358/1 435/359/1 436/360/1
f 437/361/1 438/362/1 439/363/1 440/364/1
f 441/365/1 442/366/1 443/367/1 444/368/1
f 445/369/1 446/370/1 447/371/1 448/372/1
f 449/373/1 450/374/1 451/375/1 452/376/1
f 453/377/1 454/378/1 455/379/1 456/380/1
f 457/381/1 458/382/1 459/383/1 460/384/1
f 461/385/1 462/386/1 463/387/1 464/388/1
f 465/389/1 466/390/1 467/391/1 468/392/1
f 469/393/1 470/394/1 471/395/1 472/396/1
f 473/397/1 474/398/1 475/399/1 476/400/1
f 477/401/1 478/402/1 479/403/1 480/404/1

